<?xml version="1.0" encoding="UTF-8"?>
<!DOCTYPE svg PUBLIC "-//W3C//DTD SVG 1.1//EN" "http://www.w3.org/Graphics/SVG/1.1/DTD/svg11.dtd">
<!-- Creator: CorelDRAW X7 -->
<svg xmlns="http://www.w3.org/2000/svg" xml:space="preserve" width="8.925in" height="2in" version="1.1" style="shape-rendering:geometricPrecision; text-rendering:geometricPrecision; image-rendering:optimizeQuality; fill-rule:evenodd; clip-rule:evenodd"
viewBox="0 0 8925 2000"
 xmlns:xlink="http://www.w3.org/1999/xlink">
 <defs>
  <style type="text/css">
   <![CDATA[
    .fil0 {fill:black}
   ]]>
  </style>
 </defs>
 <g id="Layer_x0020_1">
  <metadata id="CorelCorpID_0Corel-Layer"/>
  <path class="fil0" d="M1870 645l-19 -325c-11,-176 -144,-320 -320,-320l-857 0c-176,0 -309,144 -320,320l-20 325 0 0c127,35 226,173 242,345 143,-40 326,-64 525,-64 200,0 384,25 527,65 17,-172 115,-311 242,-346l0 0zm-769 381c223,0 426,30 575,79 8,-209 136,-376 295,-385l3 0 3 0c2,0 4,0 7,0 120,0 218,98 218,219 0,104 -72,191 -170,213l-29 543c-5,92 -68,169 -154,187l0 39c0,27 -22,50 -50,50l-65 0c-27,0 -50,-23 -50,-50l0 -36 -1166 0 0 36c0,27 -23,50 -50,50l-65 0c-28,0 -50,-23 -50,-50l0 -39c-86,-18 -149,-95 -154,-187l-29 -543c-98,-22 -170,-109 -170,-213 0,-121 98,-219 218,-219 3,0 5,0 7,0l3 0 3 0c159,9 288,176 295,385 149,-49 352,-79 575,-79z"/>
  <path class="fil0" d="M8483 660c107,-95 239,-158 388,-158l54 0 0 327 -60 -7c-25,-3 -49,-5 -74,-5 -102,0 -250,84 -308,172l0 978 -314 0 0 -1435 314 0 0 128z"/>
  <path class="fil0" d="M7458 823l-220 0 0 -291 220 0 0 -362 317 0 0 362 269 0 0 291 -269 0 0 768c0,53 14,116 78,116 34,0 76,-14 99,-40l60 -65 105 273 -27 25c-78,74 -176,100 -281,100 -231,0 -351,-139 -351,-365l0 -812z"/>
  <polygon class="fil0" points="7114,1967 6799,1967 6799,532 7114,532 "/>
  <path class="fil0" d="M6958 452c-107,0 -195,-84 -195,-192 0,-107 88,-194 195,-194 107,0 191,88 191,194 0,107 -84,192 -191,192z"/>
  <path class="fil0" d="M5780 962l0 1005 -315 0 0 -1435 315 0 0 119c119,-94 274,-151 420,-151 313,0 475,172 475,482l0 985 -312 0 0 -922c0,-178 -69,-253 -245,-253 -126,0 -259,73 -338,170z"/>
  <path class="fil0" d="M4899 660c107,-95 239,-158 388,-158l54 0 0 327 -60 -7c-25,-3 -49,-5 -74,-5 -102,0 -250,84 -308,172l0 978 -315 0 0 -1435 315 0 0 128z"/>
  <path class="fil0" d="M4145 1851c-118,93 -268,149 -417,149 -312,0 -477,-165 -477,-477l0 -991 314 0 0 928c0,179 69,247 245,247 123,0 258,-67 335,-164l0 -1011 315 0 0 1435 -315 0 0 -116z"/>
  <path class="fil0" d="M2542 823l-219 0 0 -291 219 0 0 -47c0,-274 152,-485 439,-485 123,0 226,31 317,116l34 31 -144 223 -48 -41c-37,-32 -77,-50 -126,-50 -125,0 -157,95 -157,206l0 47 269 0 0 291 -269 0 0 1144 -315 0 0 -1144z"/>
 </g>
</svg>
