<?xml version="1.0" encoding="UTF-8"?>
<!DOCTYPE svg PUBLIC "-//W3C//DTD SVG 1.1//EN" "http://www.w3.org/Graphics/SVG/1.1/DTD/svg11.dtd">
<!-- Creator: CorelDRAW X7 -->
<svg xmlns="http://www.w3.org/2000/svg" xml:space="preserve" width="2.206in" height="1.974in" version="1.1" style="shape-rendering:geometricPrecision; text-rendering:geometricPrecision; image-rendering:optimizeQuality; fill-rule:evenodd; clip-rule:evenodd"
viewBox="0 0 2206 1974"
 xmlns:xlink="http://www.w3.org/1999/xlink">
 <defs>
  <style type="text/css">
   <![CDATA[
    .fil0 {fill:url(#id0)}
   ]]>
  </style>
  <linearGradient id="id0" gradientUnits="userSpaceOnUse" x1="1103" y1="1973.98" x2="1103" y2="0.015748">
   <stop offset="0" style="stop-opacity:1; stop-color:#FF5E42"/>
   <stop offset="1" style="stop-opacity:1; stop-color:#FE0985"/>
  </linearGradient>
 </defs>
 <g id="Layer_x0020_1">
  <metadata id="CorelCorpID_0Corel-Layer"/>
  <path class="fil0" d="M1874 646l-20 -326c-11,-176 -144,-320 -320,-320l-859 0c-176,0 -309,144 -320,320l-20 326 0 0c127,35 226,174 242,346 144,-40 327,-64 526,-64 200,0 384,24 528,65 16,-173 115,-312 243,-347l0 0zm-771 382c223,0 426,30 576,79 7,-209 136,-377 295,-386l3 0 3 0c2,0 5,0 7,0 121,0 219,98 219,219 0,104 -73,192 -170,214l-30 544c-5,92 -67,169 -154,186l0 40c0,27 -22,50 -50,50l-65 0c-28,0 -50,-23 -50,-50l0 -36 -1168 0 0 36c0,27 -22,50 -50,50l-65 0c-28,0 -50,-23 -50,-50l0 -40c-87,-17 -149,-94 -154,-186l-30 -544c-97,-22 -170,-110 -170,-214 0,-121 98,-219 219,-219 2,0 5,0 7,0l3 0 3 0c159,9 288,177 295,386 150,-49 353,-79 576,-79z"/>
 </g>
</svg>
