<?xml version="1.0" encoding="UTF-8"?>
<!DOCTYPE svg PUBLIC "-//W3C//DTD SVG 1.1//EN" "http://www.w3.org/Graphics/SVG/1.1/DTD/svg11.dtd">
<!-- Creator: CorelDRAW X7 -->
<svg xmlns="http://www.w3.org/2000/svg" xml:space="preserve" width="9.379in" height="2in" version="1.1" style="shape-rendering:geometricPrecision; text-rendering:geometricPrecision; image-rendering:optimizeQuality; fill-rule:evenodd; clip-rule:evenodd"
viewBox="0 0 9379 2000"
 xmlns:xlink="http://www.w3.org/1999/xlink">
 <defs>
  <style type="text/css">
   <![CDATA[
    .fil0 {fill:white}
   ]]>
  </style>
 </defs>
 <g id="Layer_x0020_1">
  <metadata id="CorelCorpID_0Corel-Layer"/>
  <path class="fil0" d="M2543 823l-220 0 0 -291 220 0 0 -47c0,-274 151,-485 439,-485 122,0 225,31 317,116l33 31 -144 223 -47 -41c-37,-32 -77,-50 -127,-50 -125,0 -156,95 -156,206l0 47 269 0 0 291 -269 0 0 1144 -315 0 0 -1144zm1616 1028c-118,93 -268,149 -417,149 -312,0 -477,-165 -477,-477l0 -991 314 0 0 928c0,179 69,247 245,247 123,0 258,-67 335,-164l0 -1011 315 0 0 1435 -315 0 0 -116zm933 -1191c107,-95 239,-158 387,-158l55 0 0 327 -61 -7c-25,-3 -49,-5 -73,-5 -102,0 -250,84 -308,172l0 978 -315 0 0 -1435 315 0 0 128zm905 302l0 1005 -314 0 0 -1435 314 0 0 119c119,-94 274,-151 421,-151 312,0 474,172 474,482l0 985 -312 0 0 -922c0,-178 -68,-253 -245,-253 -126,0 -258,73 -338,170zm1359 -510c-106,0 -194,-84 -194,-192 0,-107 88,-194 194,-194 108,0 192,88 192,194 0,107 -85,192 -192,192zm157 1515l-315 0 0 -1435 315 0 0 1435zm343 -1144l-219 0 0 -291 219 0 0 -362 318 0 0 362 269 0 0 291 -269 0 0 768c0,53 13,116 77,116 34,0 76,-14 100,-40l59 -65 106 273 -27 25c-78,74 -176,100 -282,100 -230,0 -351,-139 -351,-365l0 -812zm1081 -163c107,-95 239,-158 387,-158l55 0 0 327 -61 -7c-24,-3 -48,-5 -73,-5 -102,0 -250,84 -308,172l0 978 -315 0 0 -1435 315 0 0 128zm-7066 -15l-20 -325c-11,-176 -144,-320 -320,-320l-857 0c-176,0 -309,144 -320,320l-19 325 0 0c127,35 225,173 242,345 143,-40 325,-64 524,-64 201,0 384,24 528,65 16,-172 114,-311 242,-346l0 0zm-770 381c224,0 426,30 575,79 8,-209 136,-376 295,-385l3 0 3 0c2,0 5,0 7,0 121,0 219,98 219,219 0,104 -73,191 -170,213l-30 543c-5,92 -67,169 -153,187l0 39c0,27 -23,50 -50,50l-66 0c-27,0 -49,-23 -49,-50l0 -36 -1167 0 0 36c0,27 -22,50 -50,50l-65 0c-27,0 -50,-23 -50,-50l0 -39c-86,-18 -148,-95 -153,-187l-30 -543c-97,-22 -170,-109 -170,-213 0,-121 98,-219 219,-219 2,0 5,0 7,0l3 0 2 0c160,9 288,176 296,385 149,-49 351,-79 574,-79z"/>
 </g>
</svg>
