<?xml version="1.0" encoding="UTF-8"?>
<!DOCTYPE svg PUBLIC "-//W3C//DTD SVG 1.1//EN" "http://www.w3.org/Graphics/SVG/1.1/DTD/svg11.dtd">
<!-- Creator: CorelDRAW X7 -->
<svg xmlns="http://www.w3.org/2000/svg" xml:space="preserve" width="2.235in" height="2in" version="1.1" style="shape-rendering:geometricPrecision; text-rendering:geometricPrecision; image-rendering:optimizeQuality; fill-rule:evenodd; clip-rule:evenodd"
viewBox="0 0 2235 2000"
 xmlns:xlink="http://www.w3.org/1999/xlink">
 <defs>
  <style type="text/css">
   <![CDATA[
    .fil0 {fill:black}
   ]]>
  </style>
 </defs>
 <g id="Layer_x0020_1">
  <metadata id="CorelCorpID_0Corel-Layer"/>
  <path class="fil0" d="M1898 654l-20 -330c-11,-178 -146,-324 -324,-324l-870 0c-179,0 -314,146 -324,324l-21 330 0 0c129,36 229,176 246,351 145,-41 331,-65 533,-65 203,0 389,25 535,66 16,-175 116,-316 245,-352l0 0zm-780 387c226,0 431,31 583,81 8,-213 138,-383 299,-391l3 0 3 0c2,0 5,0 7,0 123,0 222,99 222,222 0,105 -74,193 -172,216l-31 551c-5,93 -68,172 -155,189l0 40c0,28 -23,51 -51,51l-66 0c-28,0 -51,-23 -51,-51l0 -36 -1183 0 0 36c0,28 -23,51 -51,51l-66 0c-28,0 -51,-23 -51,-51l0 -40c-87,-17 -150,-96 -155,-189l-31 -551c-98,-23 -172,-111 -172,-216 0,-123 99,-222 222,-222 2,0 5,0 7,0l3 0 3 0c161,8 291,178 299,391 152,-50 357,-81 584,-81z"/>
 </g>
</svg>
