<?xml version="1.0" encoding="UTF-8"?>
<!DOCTYPE svg PUBLIC "-//W3C//DTD SVG 1.1//EN" "http://www.w3.org/Graphics/SVG/1.1/DTD/svg11.dtd">
<!-- Creator: CorelDRAW X7 -->
<svg xmlns="http://www.w3.org/2000/svg" xml:space="preserve" width="8.92987in" height="2.00301in" version="1.1" style="shape-rendering:geometricPrecision; text-rendering:geometricPrecision; image-rendering:optimizeQuality; fill-rule:evenodd; clip-rule:evenodd"
viewBox="0 0 4952 1111"
 xmlns:xlink="http://www.w3.org/1999/xlink">
 <defs>
  <style type="text/css">
   <![CDATA[
    .fil1 {fill:black}
    .fil0 {fill:url(#id0)}
   ]]>
  </style>
  <linearGradient id="id0" gradientUnits="userSpaceOnUse" x1="611.711" y1="1094.76" x2="611.711" y2="0">
   <stop offset="0" style="stop-opacity:1; stop-color:#FF765F"/>
   <stop offset="1" style="stop-opacity:1; stop-color:#FE0985"/>
  </linearGradient>
 </defs>
 <g id="Layer_x0020_1">
  <metadata id="CorelCorpID_0Corel-Layer"/>
  <g id="_1548289644912">
   <path class="fil0" d="M1039 358l-11 -181c-6,-97 -80,-177 -177,-177l-477 0c-97,0 -171,80 -177,177l-11 181 0 0c70,20 125,97 134,192 80,-22 181,-36 292,-36 111,0 213,14 293,36 9,-95 63,-172 134,-192l0 0zm-427 212c124,0 236,17 319,44 4,-116 75,-209 164,-214l2 0 1 0c1,0 3,0 4,0 67,0 121,54 121,121 0,58 -40,107 -94,119l-16 302c-3,51 -38,94 -86,103l0 22c0,15 -12,28 -27,28l-37 0c-15,0 -27,-13 -27,-28l0 -20 -648 0 0 20c0,15 -13,28 -28,28l-36 0c-15,0 -28,-13 -28,-28l0 -22c-48,-9 -82,-52 -85,-103l-17 -302c-54,-12 -94,-61 -94,-119 0,-67 54,-121 121,-121 2,0 3,0 4,0l2 0 2 0c88,5 159,98 163,214 83,-27 196,-44 320,-44z"/>
   <g>
    <path class="fil1" d="M4707 368c60,-53 133,-88 215,-88l30 0 0 181 -33 -3c-14,-2 -27,-3 -41,-3 -56,0 -138,46 -171,95l0 543 -174 0 0 -796 174 0 0 71z"/>
    <path class="fil1" d="M4139 458l-122 0 0 -161 122 0 0 -201 176 0 0 201 149 0 0 161 -149 0 0 426c0,30 7,64 43,64 19,0 42,-7 55,-22l33 -36 58 151 -15 14c-43,41 -97,56 -156,56 -127,0 -194,-77 -194,-202l0 -451z"/>
    <polygon class="fil1" points="3948,1093 3773,1093 3773,297 3948,297 "/>
    <path class="fil1" d="M3861 252c-59,0 -108,-46 -108,-106 0,-59 49,-108 108,-108 60,0 107,49 107,108 0,59 -47,106 -107,106z"/>
    <path class="fil1" d="M3208 535l0 558 -174 0 0 -796 174 0 0 66c66,-52 152,-84 233,-84 174,0 263,95 263,267l0 547 -173 0 0 -512c0,-98 -38,-140 -135,-140 -70,0 -144,40 -188,94z"/>
    <path class="fil1" d="M2720 368c59,-53 132,-88 215,-88l30 0 0 181 -34 -3c-13,-2 -27,-3 -41,-3 -56,0 -138,46 -170,95l0 543 -175 0 0 -796 175 0 0 71z"/>
    <path class="fil1" d="M2302 1028c-66,52 -149,83 -232,83 -173,0 -265,-92 -265,-265l0 -549 175 0 0 514c0,100 38,137 136,137 68,0 143,-37 186,-91l0 -560 174 0 0 796 -174 0 0 -65z"/>
    <path class="fil1" d="M1413 458l-122 0 0 -161 122 0 0 -26c0,-152 83,-269 243,-269 68,0 125,17 176,64l18 17 -80 124 -26 -23c-20,-18 -42,-28 -70,-28 -69,0 -87,53 -87,115l0 26 149 0 0 161 -149 0 0 635 -174 0 0 -635z"/>
   </g>
  </g>
 </g>
</svg>
